<svg xmlns="http://www.w3.org/2000/svg" width="1806" height="236" viewBox="0 0 1806 236">
<defs>
<marker id="arrow" markerWidth="10" markerHeight="10" refX="9" refY="3" orient="auto" markerUnits="strokeWidth">
<path d="M0,0 L0,6 L9,3 z" fill="#64748b" />
</marker>
</defs>
<rect width="100%" height="100%" fill="#f8fafc"/>
<style>text{font-family:Consolas,Menlo,monospace;font-size:13px;fill:#111827}</style>
<line x1="218" y1="118.0" x2="288" y2="118.0" stroke="#64748b" stroke-width="1.5" marker-end="url(#arrow)"/>
<line x1="478" y1="118.0" x2="548" y2="118.0" stroke="#64748b" stroke-width="1.5" marker-end="url(#arrow)"/>
<line x1="738" y1="118.0" x2="808" y2="50.0" stroke="#64748b" stroke-width="1.5" marker-end="url(#arrow)"/>
<line x1="738" y1="118.0" x2="808" y2="118.0" stroke="#64748b" stroke-width="1.5" marker-end="url(#arrow)"/>
<line x1="998" y1="118.0" x2="1068" y2="118.0" stroke="#64748b" stroke-width="1.5" marker-end="url(#arrow)"/>
<line x1="1258" y1="118.0" x2="1328" y2="50.0" stroke="#64748b" stroke-width="1.5" marker-end="url(#arrow)"/>
<line x1="1258" y1="118.0" x2="1328" y2="118.0" stroke="#64748b" stroke-width="1.5" marker-end="url(#arrow)"/>
<line x1="1258" y1="118.0" x2="1328" y2="186.0" stroke="#64748b" stroke-width="1.5" marker-end="url(#arrow)"/>
<line x1="1518" y1="186.0" x2="1588" y2="118.0" stroke="#64748b" stroke-width="1.5" marker-end="url(#arrow)"/>
<line x1="738" y1="118.0" x2="808" y2="186.0" stroke="#64748b" stroke-width="1.5" marker-end="url(#arrow)"/>
<line x1="998" y1="186.0" x2="1068" y2="118.0" stroke="#64748b" stroke-width="1.5" marker-end="url(#arrow)"/>
<rect x="28" y="96" width="190" height="44" rx="6" fill="#ffffff" stroke="#cbd5e1"/>
<text x="40" y="123">NllLossBackward0</text>
<rect x="288" y="96" width="190" height="44" rx="6" fill="#ffffff" stroke="#cbd5e1"/>
<text x="300" y="123">LogSoftmaxBackward0</text>
<rect x="548" y="96" width="190" height="44" rx="6" fill="#ffffff" stroke="#cbd5e1"/>
<text x="560" y="123">AddmmBackward0</text>
<rect x="808" y="28" width="190" height="44" rx="6" fill="#ffffff" stroke="#cbd5e1"/>
<text x="820" y="55">AccumulateGrad</text>
<rect x="808" y="96" width="190" height="44" rx="6" fill="#ffffff" stroke="#cbd5e1"/>
<text x="820" y="123">TanhBackward0</text>
<rect x="1068" y="96" width="190" height="44" rx="6" fill="#ffffff" stroke="#cbd5e1"/>
<text x="1080" y="123">AccumulateGrad</text>
<rect x="1328" y="28" width="190" height="44" rx="6" fill="#ffffff" stroke="#cbd5e1"/>
<text x="1340" y="55">AccumulateGrad</text>
<rect x="1328" y="96" width="190" height="44" rx="6" fill="#ffffff" stroke="#cbd5e1"/>
<text x="1340" y="123">AccumulateGrad</text>
<rect x="1328" y="164" width="190" height="44" rx="6" fill="#ffffff" stroke="#cbd5e1"/>
<text x="1340" y="191">TBackward0</text>
<rect x="1588" y="96" width="190" height="44" rx="6" fill="#ffffff" stroke="#cbd5e1"/>
<text x="1600" y="123">AccumulateGrad</text>
<rect x="808" y="164" width="190" height="44" rx="6" fill="#ffffff" stroke="#cbd5e1"/>
<text x="820" y="191">TBackward0</text>
</svg>